<svg xmlns="http://www.w3.org/2000/svg" xmlns:xlink="http://www.w3.org/1999/xlink" width="500" zoomAndPan="magnify" viewBox="0 0 375 374.999991" height="500" preserveAspectRatio="xMidYMid meet" version="1.0"><defs><g/><clipPath id="6f8d2d4841"><path d="M 112.644531 101.1875 L 262.355469 101.1875 L 262.355469 173.9375 L 112.644531 173.9375 Z M 112.644531 101.1875 " clip-rule="nonzero"/></clipPath><clipPath id="9b45a115a2"><path d="M 114.441406 140.527344 L 260.558594 140.527344 L 260.558594 173.9375 L 114.441406 173.9375 Z M 114.441406 140.527344 " clip-rule="nonzero"/></clipPath></defs><rect x="-37.5" width="450" fill="#ffffff" y="-37.499999" height="449.999989" fill-opacity="1"/><rect x="-37.5" width="450" fill="#ffffff" y="-37.499999" height="449.999989" fill-opacity="1"/><rect x="-37.5" width="450" fill="#faf6f6" y="-37.499999" height="449.999989" fill-opacity="1"/><g clip-path="url(#6f8d2d4841)"><path fill="#e5af37" d="M 249.671875 168.976562 C 248.234375 169.53125 246.695312 169.882812 245.125 170.15625 C 249.417969 166.644531 251.84375 160.988281 251.90625 154.996094 C 251.929688 152.988281 248.796875 152.992188 248.777344 154.996094 C 248.6875 163.804688 243.378906 168.914062 236.339844 169.992188 C 237.167969 166.394531 238.355469 162.851562 240.0625 159.597656 C 243.152344 153.707031 252.367188 150.675781 259.109375 150.523438 C 258.484375 157.011719 255.714844 166.648438 249.671875 168.976562 Z M 233.113281 170.179688 C 230.789062 170.140625 228.359375 169.730469 225.90625 168.894531 C 224.152344 168.292969 222.433594 167.671875 220.730469 167.050781 C 225.417969 166.496094 230.226562 164.898438 233.429688 163.269531 C 234.207031 162.871094 234.929688 162.34375 235.625 161.753906 C 234.5 164.484375 233.691406 167.34375 233.113281 170.179688 Z M 212.660156 162.960938 C 212.464844 161.464844 213.785156 158.300781 214.09375 157.351562 C 215.335938 153.523438 217.367188 149.847656 219.964844 146.765625 C 224.367188 141.53125 234.589844 138.566406 241.714844 138.457031 C 241.074219 145.417969 238.207031 155.953125 232.882812 159.945312 C 230.5 161.734375 225.710938 163.375 221.140625 163.980469 C 224.425781 162.617188 227.351562 160.5625 229.597656 157.4375 C 232.335938 153.625 233.003906 148.671875 233.023438 144.109375 C 233.03125 142.097656 229.902344 142.101562 229.894531 144.109375 C 229.878906 147.792969 229.394531 151.378906 227.632812 154.675781 C 224.710938 160.160156 218.5 162.234375 212.660156 162.960938 Z M 190.898438 158.558594 C 191.359375 155.421875 192.820312 147.765625 197.714844 143.691406 C 202.605469 139.617188 209.625 138.394531 214.050781 138.375 C 216.070312 138.367188 216.070312 135.253906 214.050781 135.261719 C 209.480469 135.28125 204.988281 135.917969 200.886719 137.792969 C 202.066406 134.945312 202.714844 131.972656 202.464844 128.871094 C 208.332031 126.152344 215.859375 124.546875 221.265625 124.09375 C 221.226562 132.273438 217.78125 140.820312 213.8125 147.769531 C 209.527344 155.269531 198.992188 156.789062 190.898438 158.558594 Z M 209.558594 163.066406 C 205.902344 161.855469 202.214844 160.789062 198.386719 160.058594 C 203.039062 158.949219 207.6875 157.453125 211.378906 154.800781 C 210.089844 157.675781 209.226562 160.660156 209.558594 163.066406 Z M 190.5625 148.230469 C 190.859375 142.75 192.011719 137.417969 195.707031 133.414062 C 196.625 132.417969 197.800781 131.503906 199.132812 130.664062 C 198.863281 134.558594 197.347656 138.121094 195.292969 141.503906 C 193.320312 143.378906 191.828125 145.621094 190.6875 148.066406 C 190.644531 148.121094 190.601562 148.175781 190.5625 148.230469 Z M 187.960938 143.503906 C 187.238281 138.972656 185.691406 134.707031 182.46875 131.210938 C 180.941406 129.558594 178.875 128.109375 176.5 126.859375 C 176.582031 126.515625 176.640625 126.179688 176.75 125.835938 C 179.035156 118.679688 184.085938 111.429688 188.941406 105.800781 C 190.742188 103.710938 192.757812 109.4375 193.738281 111.320312 C 195.945312 115.550781 197.390625 120.195312 198.582031 124.796875 C 198.808594 125.675781 198.949219 126.53125 199.046875 127.375 C 197.511719 128.226562 196.058594 129.125 194.824219 130.128906 C 190.625 133.539062 188.765625 138.332031 187.960938 143.503906 Z M 180.308594 141.277344 C 178.078125 138 176.414062 134.5 176.167969 130.839844 C 176.835938 131.183594 177.503906 131.527344 178.144531 131.878906 C 183.546875 134.875 185.089844 141.238281 185.441406 147.753906 C 185.101562 147.367188 181.988281 142.863281 180.308594 141.277344 Z M 162.148438 147.769531 C 157.777344 141.613281 154.734375 131.929688 154.691406 124.128906 C 160.742188 124.65625 167.085938 126.625 172.796875 129.207031 C 172.589844 131.972656 173.246094 134.726562 174.445312 137.402344 C 170.535156 135.746094 166.089844 135.277344 161.90625 135.261719 C 159.886719 135.253906 159.890625 138.367188 161.90625 138.375 C 166.453125 138.394531 172.898438 138.851562 177.71875 143.058594 C 182.539062 147.269531 184.554688 155.097656 185.058594 158.546875 C 176.679688 156.644531 167.398438 155.164062 162.148438 147.769531 Z M 165.957031 163.746094 C 165.234375 160.757812 164.589844 157.375 163.636719 154.097656 C 167.816406 157.515625 173.523438 159.160156 179.042969 160.40625 C 175.066406 161.3125 170.59375 162.539062 165.957031 163.746094 Z M 148.683594 154.675781 C 146.820312 151.511719 146.441406 147.699219 146.425781 144.109375 C 146.417969 142.101562 143.289062 142.097656 143.296875 144.109375 C 143.316406 148.8125 144.109375 153.429688 146.722656 157.4375 C 148.351562 159.9375 150.578125 161.730469 153.089844 163.050781 C 149.050781 162.703125 145.1875 161.691406 142.230469 158.988281 C 137.761719 154.910156 135.214844 144.917969 134.625 138.453125 C 141.269531 138.574219 148.171875 141.351562 153.804688 144.539062 C 159.820312 147.941406 161.128906 156.292969 162.542969 162.8125 C 156.953125 161.945312 151.6875 159.769531 148.683594 154.675781 Z M 142.976562 167.894531 C 142.425781 165.878906 141.742188 163.878906 140.949219 161.917969 C 144.851562 165.214844 150.140625 166.082031 155.445312 166.25 C 151.121094 167.140625 146.878906 167.78125 142.976562 167.894531 Z M 138.460938 167.757812 C 130.464844 166.960938 124.722656 162.984375 124.207031 152.699219 C 124.105469 150.699219 120.976562 150.691406 121.078125 152.699219 C 121.433594 159.84375 123.828125 164.414062 127.527344 167.210938 C 126.929688 167.089844 126.316406 167.007812 125.730469 166.84375 C 119.347656 165.074219 116.515625 154.722656 115.890625 148.21875 C 122.5625 148.371094 131.035156 151.363281 134.785156 156.65625 C 137.0625 159.875 138.546875 163.792969 139.65625 167.632812 C 139.257812 167.675781 138.859375 167.722656 138.460938 167.757812 Z M 260.789062 147.390625 C 255.105469 147.085938 246.375 149.136719 241.332031 153.203125 C 243.628906 147.667969 244.753906 141.242188 244.953125 136.890625 C 244.996094 136.011719 244.210938 135.378906 243.390625 135.332031 C 236.289062 134.949219 226.402344 137.546875 220.128906 142.484375 C 222.992188 136.089844 224.753906 128.898438 224.398438 122.433594 C 224.355469 121.613281 223.722656 120.832031 222.835938 120.875 C 216.640625 121.152344 208.609375 122.902344 201.992188 125.890625 C 200.277344 117.320312 196.941406 108.046875 190.941406 101.636719 C 190.339844 100.996094 189.339844 101.078125 188.726562 101.636719 C 182.03125 107.730469 176.492188 116.898438 173.597656 125.503906 C 166.882812 122.648438 158.691406 121.125 153.125 120.875 C 152.238281 120.832031 151.605469 121.613281 151.5625 122.433594 C 151.214844 128.769531 152.894531 135.804688 155.65625 142.101562 C 149.246094 137.910156 140.488281 134.925781 132.929688 135.332031 C 132.109375 135.378906 131.324219 136.011719 131.363281 136.890625 C 131.5625 141.246094 132.644531 146.675781 134.480469 151.5625 C 129.574219 147.09375 120.191406 144.769531 114.210938 145.09375 C 113.386719 145.136719 112.605469 145.765625 112.644531 146.648438 C 112.960938 153.703125 115.804688 165.230469 122.539062 168.914062 C 127.085938 171.402344 131.261719 171.292969 138.609375 170.886719 C 159.753906 169.71875 177.773438 162.402344 188.898438 162.128906 C 198.605469 161.890625 207.992188 165.0625 216.859375 168.628906 C 222.355469 170.839844 228.265625 173.316406 234.265625 173.761719 C 255.867188 175.367188 257.472656 166.015625 258.714844 162.890625 C 260.480469 158.457031 262.136719 153.753906 262.355469 148.949219 C 262.394531 148.066406 261.613281 147.4375 260.789062 147.390625 " fill-opacity="1" fill-rule="nonzero"/></g><g clip-path="url(#9b45a115a2)"><path fill="#e5af37" d="M 233.113281 170.179688 C 230.789062 170.140625 228.359375 169.730469 225.90625 168.894531 C 224.152344 168.292969 222.433594 167.671875 220.730469 167.050781 C 225.417969 166.496094 230.226562 164.898438 233.429688 163.269531 C 234.207031 162.871094 234.929688 162.34375 235.625 161.753906 C 234.5 164.484375 233.691406 167.34375 233.113281 170.179688 Z M 209.558594 163.066406 C 205.902344 161.855469 202.214844 160.789062 198.386719 160.058594 C 203.039062 158.949219 207.6875 157.453125 211.378906 154.800781 C 210.089844 157.675781 209.226562 160.660156 209.558594 163.066406 Z M 165.957031 163.746094 C 165.234375 160.757812 164.589844 157.375 163.636719 154.097656 C 167.816406 157.515625 173.523438 159.160156 179.042969 160.40625 C 175.066406 161.3125 170.59375 162.539062 165.957031 163.746094 Z M 142.976562 167.894531 C 142.425781 165.878906 141.742188 163.878906 140.949219 161.917969 C 144.851562 165.214844 150.140625 166.082031 155.445312 166.25 C 151.121094 167.140625 146.878906 167.78125 142.976562 167.894531 Z M 256.546875 161.015625 C 255.015625 164.652344 252.777344 167.78125 249.671875 168.976562 C 248.234375 169.53125 246.695312 169.882812 245.125 170.15625 C 247.941406 167.851562 249.945312 164.625 251.015625 160.988281 C 249.929688 161.910156 248.824219 162.574219 247.960938 162.601562 C 247.6875 162.609375 247.382812 162.605469 247.058594 162.582031 C 244.9375 166.773438 241.023438 169.273438 236.339844 169.992188 C 237.167969 166.394531 238.355469 162.851562 240.0625 159.597656 C 240.378906 158.996094 240.761719 158.421875 241.195312 157.878906 C 241.203125 157.5 241.246094 157.09375 241.339844 156.65625 C 241.742188 154.765625 242.15625 153.363281 242.558594 152.304688 C 242.132812 152.589844 241.71875 152.890625 241.332031 153.203125 C 241.734375 152.234375 242.097656 151.234375 242.433594 150.222656 L 241.996094 150.53125 C 241.097656 153.0625 239.390625 155.601562 237.578125 157.460938 C 235.117188 159.984375 232.449219 161.246094 231.546875 160.796875 C 228.953125 162.234375 224.972656 163.472656 221.140625 163.980469 C 224.425781 162.617188 227.351562 160.5625 229.597656 157.4375 C 230.535156 156.132812 231.226562 154.691406 231.734375 153.183594 C 229.695312 155.621094 226.851562 157.226562 225.441406 157.644531 C 222.167969 160.957031 217.296875 162.386719 212.660156 162.960938 C 212.464844 161.464844 213.785156 158.300781 214.09375 157.351562 C 215.054688 154.386719 216.492188 151.515625 218.296875 148.941406 C 219.402344 146.335938 220.945312 143.269531 222.550781 140.800781 C 221.757812 141.289062 221.007812 141.808594 220.296875 142.359375 C 218.4375 145.878906 215.523438 150.050781 212.136719 150.078125 C 207.1875 155.613281 198.082031 156.988281 190.898438 158.558594 C 191.257812 156.097656 192.234375 150.859375 195.003906 146.746094 C 193.304688 148.125 190.707031 148.953125 188.0625 148.972656 C 184.894531 148.949219 181.792969 147.769531 180.222656 145.871094 C 180.222656 145.871094 180.21875 145.867188 180.21875 145.867188 C 183.261719 150.148438 184.652344 155.765625 185.058594 158.546875 C 177.636719 156.863281 169.507812 155.503906 164.097656 150.074219 C 160.445312 150.148438 157.328125 145.355469 155.476562 141.683594 C 155.539062 141.824219 155.59375 141.964844 155.65625 142.101562 C 154.996094 141.671875 154.308594 141.253906 153.605469 140.847656 C 154.90625 142.859375 156.167969 145.265625 157.183594 147.488281 C 160.410156 151.585938 161.445312 157.75 162.539062 162.8125 C 158.234375 162.144531 154.121094 160.695312 151.085938 157.734375 C 149.972656 157.574219 147.070312 156.101562 144.847656 153.703125 C 145.328125 154.992188 145.941406 156.242188 146.722656 157.4375 C 148.351562 159.9375 150.578125 161.730469 153.085938 163.050781 C 150.082031 162.792969 147.175781 162.164062 144.667969 160.75 C 143.859375 161.335938 141.089844 160.066406 138.542969 157.460938 C 136.734375 155.605469 135.027344 153.0625 134.128906 150.53125 L 134.101562 150.511719 C 134.222656 150.863281 134.351562 151.214844 134.480469 151.566406 C 133.839844 150.980469 133.117188 150.433594 132.339844 149.921875 C 133.109375 151 133.964844 152.8125 134.785156 156.65625 C 137.0625 159.875 138.546875 163.792969 139.65625 167.632812 C 139.257812 167.675781 138.859375 167.722656 138.460938 167.757812 C 133.75 167.289062 129.820312 165.714844 127.285156 162.398438 C 125.339844 161.632812 122.78125 158.871094 121.601562 157.019531 C 122.550781 161.75 124.636719 165.027344 127.527344 167.214844 C 126.929688 167.089844 126.316406 167.007812 125.730469 166.84375 C 123.046875 166.101562 120.992188 163.835938 119.464844 160.980469 C 117.484375 160.332031 115.617188 158.429688 114.5 157.042969 C 116.054688 162.035156 118.648438 166.785156 122.539062 168.914062 C 127.085938 171.402344 131.261719 171.292969 138.609375 170.886719 C 159.757812 169.71875 177.773438 162.402344 188.898438 162.128906 C 198.605469 161.890625 207.992188 165.0625 216.859375 168.628906 C 222.355469 170.839844 228.265625 173.316406 234.265625 173.761719 C 255.867188 175.367188 257.472656 166.015625 258.714844 162.890625 C 259.292969 161.4375 259.859375 159.953125 260.371094 158.445312 C 259.292969 159.527344 257.945312 160.59375 256.546875 161.015625 " fill-opacity="1" fill-rule="nonzero"/></g><path fill="#e5af37" d="M 174.941406 141.113281 C 175.90625 141.652344 176.839844 142.292969 177.71875 143.058594 C 177.96875 143.277344 178.210938 143.511719 178.445312 143.75 C 178.449219 143.75 178.449219 143.75 178.449219 143.75 C 177.21875 142.386719 175.160156 138.667969 174.308594 137.09375 C 174.355469 137.195312 174.398438 137.300781 174.445312 137.402344 C 173.234375 136.890625 171.96875 136.492188 170.675781 136.183594 C 171.65625 137.617188 173.3125 139.546875 174.941406 141.113281 " fill-opacity="1" fill-rule="nonzero"/><path fill="#e5af37" d="M 204.636719 136.4375 C 203.375 136.785156 202.140625 137.222656 200.941406 137.769531 C 200.226562 139.253906 198.851562 142.027344 197.78125 143.640625 C 198.570312 142.988281 199.414062 142.417969 200.292969 141.90625 C 201.941406 140.210938 203.660156 138.023438 204.636719 136.4375 " fill-opacity="1" fill-rule="nonzero"/><path fill="#e5af37" d="M 176.238281 131.5625 C 176.207031 131.328125 176.1875 131.089844 176.167969 130.855469 C 175.136719 130.332031 173.777344 129.652344 172.796875 129.207031 C 172.742188 129.933594 172.75 130.660156 172.808594 131.386719 C 174.042969 131.386719 175.277344 131.492188 176.238281 131.5625 " fill-opacity="1" fill-rule="nonzero"/><path fill="#e5af37" d="M 177.65625 131.617188 C 177.65625 131.617188 177.585938 131.578125 177.460938 131.515625 C 177.523438 131.546875 177.585938 131.582031 177.652344 131.617188 C 177.652344 131.617188 177.65625 131.617188 177.65625 131.617188 " fill-opacity="1" fill-rule="nonzero"/><path fill="#e5af37" d="M 198.507812 131.074219 C 198.488281 131.085938 198.46875 131.097656 198.449219 131.113281 C 198.449219 131.113281 198.453125 131.113281 198.453125 131.113281 C 198.472656 131.097656 198.488281 131.085938 198.507812 131.074219 " fill-opacity="1" fill-rule="nonzero"/><path fill="#e5af37" d="M 202.464844 128.871094 C 202.464844 128.871094 200.824219 129.625 199.132812 130.675781 C 199.125 130.785156 199.113281 130.894531 199.101562 131.007812 C 200.0625 130.84375 201.40625 130.605469 202.511719 130.574219 C 202.527344 130.011719 202.511719 129.441406 202.464844 128.871094 " fill-opacity="1" fill-rule="nonzero"/><path fill="#e5af37" d="M 196.230469 112.667969 L 196.503906 112.398438 L 196.503906 112.015625 L 196.230469 111.742188 L 195.847656 111.742188 L 195.574219 112.015625 L 195.574219 112.398438 L 195.847656 112.667969 L 196.230469 112.667969 " fill-opacity="1" fill-rule="nonzero"/><path fill="#e5af37" d="M 195.632812 110.210938 L 195.359375 109.941406 L 194.976562 109.941406 L 194.703125 110.210938 L 194.703125 110.59375 L 194.976562 110.867188 L 195.359375 110.867188 L 195.632812 110.59375 L 195.632812 110.210938 " fill-opacity="1" fill-rule="nonzero"/><path fill="#e5af37" d="M 194.441406 109.085938 L 194.714844 108.816406 L 194.714844 108.433594 L 194.441406 108.160156 L 194.058594 108.160156 L 193.785156 108.433594 L 193.785156 108.816406 L 194.058594 109.085938 L 194.441406 109.085938 " fill-opacity="1" fill-rule="nonzero"/><path fill="#e5af37" d="M 193.4375 106.433594 L 193.054688 106.433594 L 192.78125 106.703125 L 192.78125 107.085938 L 193.054688 107.355469 L 193.4375 107.355469 L 193.710938 107.085938 L 193.710938 106.703125 L 193.4375 106.433594 " fill-opacity="1" fill-rule="nonzero"/><path fill="#e5af37" d="M 191.960938 104.753906 L 191.691406 105.023438 L 191.691406 105.40625 L 191.960938 105.679688 L 192.347656 105.679688 L 192.621094 105.40625 L 192.621094 105.023438 L 192.347656 104.753906 L 191.960938 104.753906 " fill-opacity="1" fill-rule="nonzero"/><path fill="#e5af37" d="M 190.578125 103.355469 L 190.304688 103.628906 L 190.304688 104.011719 L 190.578125 104.28125 L 190.964844 104.28125 L 191.234375 104.011719 L 191.234375 103.628906 L 190.960938 103.355469 L 190.578125 103.355469 " fill-opacity="1" fill-rule="nonzero"/><path fill="#e5af37" d="M 189.324219 103.9375 L 189.597656 103.667969 L 189.597656 103.285156 L 189.324219 103.015625 L 188.941406 103.015625 L 188.667969 103.285156 L 188.667969 103.667969 L 188.941406 103.9375 L 189.324219 103.9375 " fill-opacity="1" fill-rule="nonzero"/><path fill="#e5af37" d="M 187.726562 105.152344 L 188 104.878906 L 188 104.496094 L 187.726562 104.226562 L 187.34375 104.226562 L 187.070312 104.496094 L 187.070312 104.878906 L 187.34375 105.152344 L 187.726562 105.152344 " fill-opacity="1" fill-rule="nonzero"/><path fill="#e5af37" d="M 186.710938 106.03125 L 186.441406 105.757812 L 186.054688 105.757812 L 185.785156 106.03125 L 185.785156 106.414062 L 186.054688 106.683594 L 186.441406 106.683594 L 186.710938 106.414062 L 186.710938 106.03125 " fill-opacity="1" fill-rule="nonzero"/><path fill="#e5af37" d="M 184.78125 107.308594 L 184.511719 107.578125 L 184.511719 107.960938 L 184.78125 108.230469 L 185.167969 108.230469 L 185.4375 107.960938 L 185.4375 107.578125 L 185.167969 107.308594 L 184.78125 107.308594 " fill-opacity="1" fill-rule="nonzero"/><path fill="#e5af37" d="M 183.601562 108.925781 L 183.332031 109.195312 L 183.332031 109.578125 L 183.601562 109.851562 L 183.988281 109.851562 L 184.257812 109.578125 L 184.257812 109.195312 L 183.988281 108.925781 L 183.601562 108.925781 " fill-opacity="1" fill-rule="nonzero"/><path fill="#e5af37" d="M 182.4375 110.554688 L 182.167969 110.828125 L 182.167969 111.210938 L 182.4375 111.480469 L 182.824219 111.480469 L 183.09375 111.210938 L 183.09375 110.828125 L 182.824219 110.554688 L 182.4375 110.554688 " fill-opacity="1" fill-rule="nonzero"/><path fill="#e5af37" d="M 181.703125 113.144531 L 181.976562 112.871094 L 181.976562 112.488281 L 181.703125 112.21875 L 181.320312 112.21875 L 181.046875 112.488281 L 181.046875 112.871094 L 181.320312 113.144531 L 181.703125 113.144531 " fill-opacity="1" fill-rule="nonzero"/><path fill="#e5af37" d="M 176.410156 123.457031 C 176.210938 123.109375 176.152344 122.035156 176.035156 122.035156 C 175.921875 122.035156 175.953125 123.183594 175.671875 123.464844 C 175.425781 123.714844 174.597656 123.710938 174.605469 123.863281 C 174.613281 124.023438 175.566406 124.027344 175.765625 124.324219 C 175.964844 124.617188 175.816406 125.679688 176.035156 125.691406 C 176.253906 125.699219 176.097656 124.578125 176.328125 124.304688 C 176.582031 123.996094 177.695312 124.15625 177.65625 123.863281 C 177.640625 123.730469 176.570312 123.742188 176.410156 123.457031 " fill-opacity="1" fill-rule="nonzero"/><path fill="#e5af37" d="M 238.382812 157.957031 C 238.121094 157.5 238.046875 156.085938 237.890625 156.085938 C 237.742188 156.085938 237.78125 157.597656 237.414062 157.96875 C 237.089844 158.296875 236 158.292969 236.011719 158.492188 C 236.023438 158.703125 237.277344 158.710938 237.539062 159.097656 C 237.800781 159.484375 237.605469 160.882812 237.890625 160.894531 C 238.179688 160.910156 237.976562 159.433594 238.277344 159.070312 C 238.609375 158.667969 240.078125 158.878906 240.027344 158.492188 C 240.003906 158.316406 238.597656 158.332031 238.382812 157.957031 " fill-opacity="1" fill-rule="nonzero"/><path fill="#e5af37" d="M 138.214844 156.804688 C 137.953125 156.347656 137.878906 154.9375 137.722656 154.9375 C 137.574219 154.9375 137.613281 156.445312 137.246094 156.816406 C 136.917969 157.148438 135.832031 157.140625 135.84375 157.339844 C 135.855469 157.550781 137.109375 157.558594 137.371094 157.945312 C 137.632812 158.332031 137.433594 159.730469 137.722656 159.746094 C 138.011719 159.757812 137.808594 158.285156 138.109375 157.921875 C 138.441406 157.519531 139.910156 157.726562 139.855469 157.339844 C 139.832031 157.164062 138.429688 157.183594 138.214844 156.804688 " fill-opacity="1" fill-rule="nonzero"/><path fill="#e5af37" d="M 215.039062 150.195312 C 214.777344 149.738281 214.703125 148.328125 214.546875 148.328125 C 214.398438 148.328125 214.4375 149.835938 214.070312 150.207031 C 213.742188 150.539062 212.65625 150.535156 212.664062 150.730469 C 212.675781 150.941406 213.929688 150.949219 214.191406 151.335938 C 214.453125 151.722656 214.257812 153.121094 214.546875 153.136719 C 214.832031 153.152344 214.632812 151.675781 214.929688 151.3125 C 215.265625 150.910156 216.730469 151.117188 216.679688 150.730469 C 216.65625 150.554688 215.25 150.574219 215.039062 150.195312 " fill-opacity="1" fill-rule="nonzero"/><path fill="#e5af37" d="M 181.75 132.3125 L 181.367188 132.3125 L 181.09375 132.582031 L 181.09375 132.96875 L 181.367188 133.238281 L 181.75 133.238281 L 182.019531 132.96875 L 182.019531 132.582031 L 181.75 132.3125 " fill-opacity="1" fill-rule="nonzero"/><path fill="#e5af37" d="M 179.695312 131.199219 L 179.421875 131.46875 L 179.421875 131.851562 L 179.695312 132.125 L 180.082031 132.125 L 180.351562 131.851562 L 180.351562 131.46875 L 180.078125 131.199219 L 179.695312 131.199219 " fill-opacity="1" fill-rule="nonzero"/><path fill="#e5af37" d="M 178.027344 130.085938 L 177.753906 130.355469 L 177.753906 130.738281 L 178.027344 131.011719 L 178.410156 131.011719 L 178.683594 130.738281 L 178.683594 130.355469 L 178.410156 130.085938 L 178.027344 130.085938 " fill-opacity="1" fill-rule="nonzero"/><path fill="#e5af37" d="M 176.355469 128.972656 L 176.085938 129.242188 L 176.085938 129.625 L 176.355469 129.894531 L 176.742188 129.894531 L 177.015625 129.625 L 177.015625 129.242188 L 176.742188 128.972656 L 176.355469 128.972656 " fill-opacity="1" fill-rule="nonzero"/><path fill="#e5af37" d="M 174.652344 127.921875 L 174.382812 128.191406 L 174.382812 128.574219 L 174.65625 128.84375 L 175.039062 128.84375 L 175.3125 128.574219 L 175.3125 128.191406 L 175.039062 127.921875 L 174.652344 127.921875 " fill-opacity="1" fill-rule="nonzero"/><path fill="#e5af37" d="M 172.796875 127.15625 L 172.523438 127.425781 L 172.523438 127.808594 L 172.796875 128.082031 L 173.183594 128.078125 L 173.453125 127.808594 L 173.453125 127.425781 L 173.183594 127.15625 L 172.796875 127.15625 " fill-opacity="1" fill-rule="nonzero"/><path fill="#e5af37" d="M 171.597656 126.660156 L 171.324219 126.390625 L 170.941406 126.390625 L 170.667969 126.660156 L 170.667969 127.042969 L 170.941406 127.316406 L 171.324219 127.316406 L 171.597656 127.042969 L 171.597656 126.660156 " fill-opacity="1" fill-rule="nonzero"/><path fill="#e5af37" d="M 169.742188 125.898438 L 169.46875 125.625 L 169.082031 125.625 L 168.8125 125.898438 L 168.8125 126.28125 L 169.082031 126.550781 L 169.46875 126.550781 L 169.742188 126.28125 L 169.742188 125.898438 " fill-opacity="1" fill-rule="nonzero"/><path fill="#e5af37" d="M 167.875 125.152344 L 167.605469 124.882812 L 167.21875 124.882812 L 166.945312 125.152344 L 166.945312 125.535156 L 167.21875 125.808594 L 167.605469 125.808594 L 167.875 125.535156 L 167.875 125.152344 " fill-opacity="1" fill-rule="nonzero"/><path fill="#e5af37" d="M 165.933594 124.636719 L 165.664062 124.363281 L 165.277344 124.363281 L 165.007812 124.636719 L 165.007812 125.019531 L 165.277344 125.289062 L 165.664062 125.289062 L 165.933594 125.019531 L 165.933594 124.636719 " fill-opacity="1" fill-rule="nonzero"/><path fill="#e5af37" d="M 163.992188 124.5 L 163.992188 124.117188 L 163.722656 123.847656 L 163.335938 123.847656 L 163.066406 124.117188 L 163.066406 124.5 L 163.335938 124.773438 L 163.722656 124.773438 L 163.992188 124.5 " fill-opacity="1" fill-rule="nonzero"/><path fill="#e5af37" d="M 162.054688 123.984375 L 162.054688 123.601562 L 161.78125 123.328125 L 161.394531 123.328125 L 161.125 123.601562 L 161.125 123.984375 L 161.394531 124.253906 L 161.78125 124.253906 L 162.054688 123.984375 " fill-opacity="1" fill-rule="nonzero"/><path fill="#e5af37" d="M 159.820312 122.898438 L 159.4375 122.898438 L 159.164062 123.171875 L 159.164062 123.554688 L 159.4375 123.824219 L 159.820312 123.824219 L 160.09375 123.554688 L 160.09375 123.171875 L 159.820312 122.898438 " fill-opacity="1" fill-rule="nonzero"/><path fill="#e5af37" d="M 157.457031 122.554688 L 157.183594 122.824219 L 157.183594 123.207031 L 157.457031 123.480469 L 157.839844 123.480469 L 158.113281 123.207031 L 158.113281 122.824219 L 157.839844 122.554688 L 157.457031 122.554688 " fill-opacity="1" fill-rule="nonzero"/><path fill="#e5af37" d="M 155.476562 122.210938 L 155.203125 122.480469 L 155.207031 122.863281 L 155.476562 123.136719 L 155.863281 123.136719 L 156.132812 122.863281 L 156.132812 122.480469 L 155.863281 122.210938 L 155.476562 122.210938 " fill-opacity="1" fill-rule="nonzero"/><path fill="#e5af37" d="M 153.480469 121.976562 L 153.207031 122.25 L 153.207031 122.632812 L 153.480469 122.902344 L 153.867188 122.902344 L 154.136719 122.632812 L 154.136719 122.25 L 153.863281 121.976562 L 153.480469 121.976562 " fill-opacity="1" fill-rule="nonzero"/><path fill="#e5af37" d="M 152.675781 141.875 L 152.402344 142.148438 L 152.402344 142.53125 L 152.675781 142.800781 L 153.058594 142.800781 L 153.332031 142.53125 L 153.332031 142.148438 L 153.058594 141.875 L 152.675781 141.875 " fill-opacity="1" fill-rule="nonzero"/><path fill="#e5af37" d="M 150.835938 141.066406 L 150.566406 141.335938 L 150.566406 141.71875 L 150.835938 141.992188 L 151.222656 141.992188 L 151.492188 141.71875 L 151.492188 141.335938 L 151.222656 141.066406 L 150.835938 141.066406 " fill-opacity="1" fill-rule="nonzero"/><path fill="#e5af37" d="M 149.386719 140.257812 L 149 140.257812 L 148.726562 140.527344 L 148.726562 140.910156 L 149 141.179688 L 149.386719 141.179688 L 149.65625 140.910156 L 149.65625 140.527344 L 149.386719 140.257812 " fill-opacity="1" fill-rule="nonzero"/><path fill="#e5af37" d="M 147.164062 139.445312 L 146.890625 139.71875 L 146.890625 140.101562 L 147.164062 140.371094 L 147.546875 140.371094 L 147.820312 140.101562 L 147.820312 139.71875 L 147.546875 139.445312 L 147.164062 139.445312 " fill-opacity="1" fill-rule="nonzero"/><path fill="#e5af37" d="M 145.324219 138.636719 L 145.054688 138.90625 L 145.054688 139.289062 L 145.324219 139.5625 L 145.710938 139.5625 L 145.980469 139.289062 L 145.980469 138.90625 L 145.710938 138.636719 L 145.324219 138.636719 " fill-opacity="1" fill-rule="nonzero"/><path fill="#e5af37" d="M 143.375 138.15625 L 143.105469 138.425781 L 143.105469 138.808594 L 143.375 139.078125 L 143.761719 139.078125 L 144.035156 138.808594 L 144.035156 138.425781 L 143.761719 138.15625 L 143.375 138.15625 " fill-opacity="1" fill-rule="nonzero"/><path fill="#e5af37" d="M 141.421875 137.695312 L 141.148438 137.964844 L 141.148438 138.347656 L 141.421875 138.617188 L 141.804688 138.617188 L 142.078125 138.347656 L 142.078125 137.964844 L 141.804688 137.695312 L 141.421875 137.695312 " fill-opacity="1" fill-rule="nonzero"/><path fill="#e5af37" d="M 139.464844 137.234375 L 139.195312 137.503906 L 139.195312 137.886719 L 139.464844 138.15625 L 139.851562 138.15625 L 140.121094 137.886719 L 140.121094 137.503906 L 139.851562 137.234375 L 139.464844 137.234375 " fill-opacity="1" fill-rule="nonzero"/><path fill="#e5af37" d="M 137.878906 137.796875 L 138.152344 137.527344 L 138.152344 137.144531 L 137.878906 136.875 L 137.496094 136.875 L 137.222656 137.144531 L 137.222656 137.527344 L 137.496094 137.796875 L 137.878906 137.796875 " fill-opacity="1" fill-rule="nonzero"/><path fill="#e5af37" d="M 136.148438 137.382812 L 136.148438 137 L 135.875 136.726562 L 135.488281 136.726562 L 135.21875 137 L 135.21875 137.382812 L 135.488281 137.652344 L 135.875 137.652344 L 136.148438 137.382812 " fill-opacity="1" fill-rule="nonzero"/><path fill="#e5af37" d="M 133.488281 136.582031 L 133.214844 136.851562 L 133.214844 137.234375 L 133.488281 137.507812 L 133.871094 137.507812 L 134.140625 137.234375 L 134.140625 136.851562 L 133.871094 136.582031 L 133.488281 136.582031 " fill-opacity="1" fill-rule="nonzero"/><path fill="#e5af37" d="M 129.234375 149.589844 L 128.960938 149.859375 L 128.960938 150.242188 L 129.234375 150.511719 L 129.617188 150.511719 L 129.890625 150.242188 L 129.890625 149.859375 L 129.617188 149.589844 L 129.234375 149.589844 " fill-opacity="1" fill-rule="nonzero"/><path fill="#e5af37" d="M 127.371094 148.839844 L 127.097656 149.113281 L 127.097656 149.496094 L 127.371094 149.765625 L 127.753906 149.765625 L 128.027344 149.496094 L 128.027344 149.113281 L 127.753906 148.839844 L 127.371094 148.839844 " fill-opacity="1" fill-rule="nonzero"/><path fill="#e5af37" d="M 125.507812 148.09375 L 125.234375 148.363281 L 125.234375 148.746094 L 125.507812 149.015625 L 125.890625 149.015625 L 126.164062 148.746094 L 126.164062 148.363281 L 125.890625 148.09375 L 125.507812 148.09375 " fill-opacity="1" fill-rule="nonzero"/><path fill="#e5af37" d="M 124.019531 147.367188 L 123.636719 147.367188 L 123.363281 147.640625 L 123.363281 148.023438 L 123.636719 148.292969 L 124.019531 148.292969 L 124.292969 148.023438 L 124.292969 147.640625 L 124.019531 147.367188 " fill-opacity="1" fill-rule="nonzero"/><path fill="#e5af37" d="M 121.660156 147 L 121.390625 147.269531 L 121.390625 147.652344 L 121.660156 147.921875 L 122.046875 147.921875 L 122.316406 147.652344 L 122.316406 147.269531 L 122.046875 147 L 121.660156 147 " fill-opacity="1" fill-rule="nonzero"/><path fill="#e5af37" d="M 119.6875 146.628906 L 119.414062 146.898438 L 119.414062 147.28125 L 119.6875 147.554688 L 120.070312 147.554688 L 120.34375 147.28125 L 120.34375 146.898438 L 120.070312 146.628906 L 119.6875 146.628906 " fill-opacity="1" fill-rule="nonzero"/><path fill="#e5af37" d="M 117.710938 146.257812 L 117.4375 146.527344 L 117.4375 146.910156 L 117.710938 147.183594 L 118.097656 147.183594 L 118.367188 146.910156 L 118.367188 146.527344 L 118.097656 146.257812 L 117.710938 146.257812 " fill-opacity="1" fill-rule="nonzero"/><path fill="#e5af37" d="M 115.703125 146.210938 L 115.429688 146.480469 L 115.429688 146.863281 L 115.703125 147.136719 L 116.089844 147.136719 L 116.359375 146.863281 L 116.359375 146.480469 L 116.089844 146.210938 L 115.703125 146.210938 " fill-opacity="1" fill-rule="nonzero"/><path fill="#e5af37" d="M 113.695312 146.171875 L 113.421875 146.441406 L 113.421875 146.824219 L 113.695312 147.09375 L 114.078125 147.09375 L 114.351562 146.824219 L 114.351562 146.441406 L 114.078125 146.171875 L 113.695312 146.171875 " fill-opacity="1" fill-rule="nonzero"/><path fill="#e5af37" d="M 194.328125 131.683594 L 194.054688 131.957031 L 194.054688 132.339844 L 194.328125 132.609375 L 194.714844 132.609375 L 194.984375 132.339844 L 194.984375 131.957031 L 194.714844 131.683594 L 194.328125 131.683594 " fill-opacity="1" fill-rule="nonzero"/><path fill="#e5af37" d="M 196.003906 130.582031 L 195.734375 130.855469 L 195.734375 131.238281 L 196.003906 131.507812 L 196.390625 131.507812 L 196.664062 131.238281 L 196.664062 130.855469 L 196.390625 130.582031 L 196.003906 130.582031 " fill-opacity="1" fill-rule="nonzero"/><path fill="#e5af37" d="M 197.683594 129.480469 L 197.410156 129.753906 L 197.410156 130.136719 L 197.683594 130.40625 L 198.070312 130.40625 L 198.339844 130.136719 L 198.339844 129.753906 L 198.066406 129.480469 L 197.683594 129.480469 " fill-opacity="1" fill-rule="nonzero"/><path fill="#e5af37" d="M 199.359375 128.382812 L 199.089844 128.652344 L 199.089844 129.035156 L 199.359375 129.304688 L 199.746094 129.304688 L 200.015625 129.035156 L 200.015625 128.652344 L 199.746094 128.382812 L 199.359375 128.382812 " fill-opacity="1" fill-rule="nonzero"/><path fill="#e5af37" d="M 201.714844 127.589844 L 201.441406 127.316406 L 201.058594 127.316406 L 200.785156 127.589844 L 200.785156 127.96875 L 201.058594 128.242188 L 201.441406 128.242188 L 201.714844 127.96875 L 201.714844 127.589844 " fill-opacity="1" fill-rule="nonzero"/><path fill="#e5af37" d="M 203.585938 126.863281 L 203.316406 126.589844 L 202.929688 126.589844 L 202.660156 126.863281 L 202.660156 127.246094 L 202.929688 127.515625 L 203.316406 127.515625 L 203.585938 127.246094 L 203.585938 126.863281 " fill-opacity="1" fill-rule="nonzero"/><path fill="#e5af37" d="M 205.460938 126.136719 L 205.1875 125.867188 L 204.804688 125.867188 L 204.53125 126.136719 L 204.53125 126.519531 L 204.804688 126.789062 L 205.1875 126.789062 L 205.460938 126.519531 L 205.460938 126.136719 " fill-opacity="1" fill-rule="nonzero"/><path fill="#e5af37" d="M 207.332031 125.410156 L 207.0625 125.140625 L 206.675781 125.140625 L 206.40625 125.410156 L 206.40625 125.792969 L 206.675781 126.066406 L 207.0625 126.066406 L 207.332031 125.792969 L 207.332031 125.410156 " fill-opacity="1" fill-rule="nonzero"/><path fill="#e5af37" d="M 208.550781 124.425781 L 208.28125 124.695312 L 208.28125 125.078125 L 208.550781 125.351562 L 208.9375 125.351562 L 209.210938 125.078125 L 209.210938 124.695312 L 208.9375 124.425781 L 208.550781 124.425781 " fill-opacity="1" fill-rule="nonzero"/><path fill="#e5af37" d="M 210.507812 123.964844 L 210.238281 124.238281 L 210.238281 124.621094 L 210.507812 124.890625 L 210.894531 124.890625 L 211.164062 124.621094 L 211.164062 124.238281 L 210.894531 123.964844 L 210.507812 123.964844 " fill-opacity="1" fill-rule="nonzero"/><path fill="#e5af37" d="M 213.121094 124.160156 L 213.121094 123.777344 L 212.847656 123.507812 L 212.464844 123.507812 L 212.191406 123.777344 L 212.191406 124.160156 L 212.464844 124.429688 L 212.847656 124.429688 L 213.121094 124.160156 " fill-opacity="1" fill-rule="nonzero"/><path fill="#e5af37" d="M 214.804688 123.972656 L 215.078125 123.699219 L 215.078125 123.316406 L 214.804688 123.046875 L 214.417969 123.046875 L 214.148438 123.316406 L 214.148438 123.699219 L 214.421875 123.972656 L 214.804688 123.972656 " fill-opacity="1" fill-rule="nonzero"/><path fill="#e5af37" d="M 216.777344 122.679688 L 216.390625 122.679688 L 216.121094 122.949219 L 216.121094 123.335938 L 216.394531 123.605469 L 216.777344 123.605469 L 217.050781 123.335938 L 217.050781 122.949219 L 216.777344 122.679688 " fill-opacity="1" fill-rule="nonzero"/><path fill="#e5af37" d="M 218.382812 122.40625 L 218.113281 122.675781 L 218.113281 123.058594 L 218.382812 123.332031 L 218.769531 123.332031 L 219.039062 123.058594 L 219.039062 122.675781 L 218.769531 122.40625 L 218.382812 122.40625 " fill-opacity="1" fill-rule="nonzero"/><path fill="#e5af37" d="M 220.375 122.132812 L 220.101562 122.402344 L 220.101562 122.785156 L 220.375 123.054688 L 220.757812 123.054688 L 221.03125 122.785156 L 221.03125 122.402344 L 220.757812 122.132812 L 220.375 122.132812 " fill-opacity="1" fill-rule="nonzero"/><path fill="#e5af37" d="M 222.378906 121.976562 L 222.105469 122.25 L 222.105469 122.632812 L 222.378906 122.902344 L 222.761719 122.902344 L 223.035156 122.632812 L 223.035156 122.25 L 222.761719 121.976562 L 222.378906 121.976562 " fill-opacity="1" fill-rule="nonzero"/><path fill="#e5af37" d="M 225 140.527344 L 224.726562 140.796875 L 224.726562 141.179688 L 225 141.453125 L 225.386719 141.453125 L 225.65625 141.179688 L 225.65625 140.796875 L 225.386719 140.527344 L 225 140.527344 " fill-opacity="1" fill-rule="nonzero"/><path fill="#e5af37" d="M 226.851562 139.746094 L 226.578125 140.015625 L 226.578125 140.398438 L 226.851562 140.667969 L 227.234375 140.667969 L 227.507812 140.398438 L 227.507812 140.015625 L 227.234375 139.746094 L 226.851562 139.746094 " fill-opacity="1" fill-rule="nonzero"/><path fill="#e5af37" d="M 229.082031 138.960938 L 228.699219 138.960938 L 228.429688 139.234375 L 228.429688 139.617188 L 228.699219 139.886719 L 229.082031 139.886719 L 229.355469 139.617188 L 229.355469 139.234375 L 229.082031 138.960938 " fill-opacity="1" fill-rule="nonzero"/><path fill="#e5af37" d="M 230.933594 138.179688 L 230.550781 138.179688 L 230.277344 138.453125 L 230.277344 138.835938 L 230.550781 139.105469 L 230.933594 139.105469 L 231.207031 138.835938 L 231.207031 138.453125 L 230.933594 138.179688 " fill-opacity="1" fill-rule="nonzero"/><path fill="#e5af37" d="M 232.453125 137.570312 L 232.179688 137.839844 L 232.179688 138.222656 L 232.453125 138.496094 L 232.835938 138.496094 L 233.109375 138.222656 L 233.109375 137.839844 L 232.835938 137.570312 L 232.453125 137.570312 " fill-opacity="1" fill-rule="nonzero"/><path fill="#e5af37" d="M 234.804688 137.15625 L 234.417969 137.15625 L 234.148438 137.425781 L 234.148438 137.8125 L 234.417969 138.082031 L 234.804688 138.082031 L 235.074219 137.808594 L 235.074219 137.425781 L 234.804688 137.15625 " fill-opacity="1" fill-rule="nonzero"/><path fill="#e5af37" d="M 236.769531 137.667969 L 237.042969 137.398438 L 237.042969 137.011719 L 236.769531 136.742188 L 236.382812 136.742188 L 236.113281 137.011719 L 236.113281 137.398438 L 236.386719 137.667969 L 236.769531 137.667969 " fill-opacity="1" fill-rule="nonzero"/><path fill="#e5af37" d="M 238.742188 137.304688 L 239.015625 137.03125 L 239.015625 136.648438 L 238.742188 136.378906 L 238.359375 136.378906 L 238.085938 136.648438 L 238.085938 137.03125 L 238.359375 137.304688 L 238.742188 137.304688 " fill-opacity="1" fill-rule="nonzero"/><path fill="#e5af37" d="M 240.75 136.277344 L 240.363281 136.277344 L 240.09375 136.550781 L 240.09375 136.933594 L 240.363281 137.203125 L 240.75 137.203125 L 241.019531 136.933594 L 241.019531 136.550781 L 240.75 136.277344 " fill-opacity="1" fill-rule="nonzero"/><path fill="#e5af37" d="M 242.371094 136.175781 L 242.097656 136.449219 L 242.097656 136.832031 L 242.371094 137.101562 L 242.757812 137.101562 L 243.027344 136.832031 L 243.027344 136.449219 L 242.753906 136.175781 L 242.371094 136.175781 " fill-opacity="1" fill-rule="nonzero"/><path fill="#e5af37" d="M 245.40625 151.941406 L 245.136719 152.210938 L 245.136719 152.59375 L 245.40625 152.863281 L 245.792969 152.863281 L 246.0625 152.59375 L 246.0625 152.210938 L 245.792969 151.941406 L 245.40625 151.941406 " fill-opacity="1" fill-rule="nonzero"/><path fill="#e5af37" d="M 247.273438 151.195312 L 247 151.464844 L 247 151.847656 L 247.273438 152.117188 L 247.65625 152.117188 L 247.929688 151.847656 L 247.929688 151.464844 L 247.65625 151.195312 L 247.273438 151.195312 " fill-opacity="1" fill-rule="nonzero"/><path fill="#e5af37" d="M 249.519531 150.449219 L 249.136719 150.449219 L 248.863281 150.71875 L 248.863281 151.101562 L 249.136719 151.375 L 249.519531 151.375 L 249.792969 151.101562 L 249.792969 150.71875 L 249.519531 150.449219 " fill-opacity="1" fill-rule="nonzero"/><path fill="#e5af37" d="M 251 149.703125 L 250.730469 149.972656 L 250.730469 150.355469 L 251 150.628906 L 251.386719 150.628906 L 251.65625 150.355469 L 251.65625 149.972656 L 251.386719 149.703125 L 251 149.703125 " fill-opacity="1" fill-rule="nonzero"/><path fill="#e5af37" d="M 252.972656 149.328125 L 252.703125 149.601562 L 252.703125 149.984375 L 252.972656 150.253906 L 253.359375 150.253906 L 253.632812 149.984375 L 253.632812 149.601562 L 253.359375 149.328125 L 252.972656 149.328125 " fill-opacity="1" fill-rule="nonzero"/><path fill="#e5af37" d="M 255.335938 148.96875 L 254.949219 148.96875 L 254.679688 149.238281 L 254.679688 149.621094 L 254.949219 149.894531 L 255.335938 149.894531 L 255.609375 149.621094 L 255.609375 149.238281 L 255.335938 148.96875 " fill-opacity="1" fill-rule="nonzero"/><path fill="#e5af37" d="M 256.925781 148.605469 L 256.65625 148.878906 L 256.65625 149.261719 L 256.925781 149.53125 L 257.3125 149.53125 L 257.582031 149.261719 L 257.582031 148.878906 L 257.3125 148.605469 L 256.925781 148.605469 " fill-opacity="1" fill-rule="nonzero"/><path fill="#e5af37" d="M 258.933594 148.558594 L 258.664062 148.832031 L 258.664062 149.214844 L 258.933594 149.484375 L 259.320312 149.484375 L 259.589844 149.214844 L 259.589844 148.832031 L 259.320312 148.558594 L 258.933594 148.558594 " fill-opacity="1" fill-rule="nonzero"/><path fill="#e5af37" d="M 261.601562 148.804688 L 261.328125 148.535156 L 260.945312 148.535156 L 260.671875 148.804688 L 260.671875 149.1875 L 260.945312 149.457031 L 261.328125 149.457031 L 261.601562 149.1875 L 261.601562 148.804688 " fill-opacity="1" fill-rule="nonzero"/><path fill="#e5af37" d="M 174.132812 138.355469 L 173.75 138.355469 L 173.476562 138.625 L 173.476562 139.007812 L 173.75 139.28125 L 174.132812 139.28125 L 174.40625 139.007812 L 174.40625 138.625 L 174.132812 138.355469 " fill-opacity="1" fill-rule="nonzero"/><path fill="#e5af37" d="M 171.859375 137.675781 L 171.585938 137.945312 L 171.585938 138.328125 L 171.859375 138.601562 L 172.246094 138.601562 L 172.515625 138.328125 L 172.515625 137.945312 L 172.246094 137.675781 L 171.859375 137.675781 " fill-opacity="1" fill-rule="nonzero"/><path fill="#e5af37" d="M 169.945312 137.082031 L 169.671875 137.355469 L 169.671875 137.738281 L 169.945312 138.007812 L 170.328125 138.007812 L 170.601562 137.738281 L 170.601562 137.355469 L 170.328125 137.082031 L 169.945312 137.082031 " fill-opacity="1" fill-rule="nonzero"/><path fill="#e5af37" d="M 168.355469 136.714844 L 167.96875 136.714844 L 167.699219 136.984375 L 167.699219 137.367188 L 167.96875 137.640625 L 168.355469 137.640625 L 168.625 137.367188 L 168.625 136.984375 L 168.355469 136.714844 " fill-opacity="1" fill-rule="nonzero"/><path fill="#e5af37" d="M 165.992188 136.367188 L 165.71875 136.640625 L 165.71875 137.023438 L 165.992188 137.292969 L 166.375 137.292969 L 166.648438 137.023438 L 166.648438 136.640625 L 166.375 136.367188 L 165.992188 136.367188 " fill-opacity="1" fill-rule="nonzero"/><path fill="#e5af37" d="M 163.988281 136.226562 L 163.714844 136.496094 L 163.714844 136.878906 L 163.988281 137.152344 L 164.371094 137.152344 L 164.644531 136.878906 L 164.644531 136.496094 L 164.371094 136.226562 L 163.988281 136.226562 " fill-opacity="1" fill-rule="nonzero"/><path fill="#e5af37" d="M 161.980469 136.171875 L 161.707031 136.445312 L 161.707031 136.828125 L 161.980469 137.097656 L 162.367188 137.097656 L 162.636719 136.828125 L 162.636719 136.445312 L 162.363281 136.171875 L 161.980469 136.171875 " fill-opacity="1" fill-rule="nonzero"/><path fill="#e5af37" d="M 201.792969 138.765625 L 201.519531 139.035156 L 201.519531 139.417969 L 201.792969 139.691406 L 202.175781 139.691406 L 202.449219 139.417969 L 202.449219 139.035156 L 202.175781 138.765625 L 201.792969 138.765625 " fill-opacity="1" fill-rule="nonzero"/><path fill="#e5af37" d="M 203.683594 138.085938 L 203.410156 138.355469 L 203.410156 138.738281 L 203.683594 139.011719 L 204.066406 139.011719 L 204.339844 138.738281 L 204.339844 138.355469 L 204.066406 138.085938 L 203.683594 138.085938 " fill-opacity="1" fill-rule="nonzero"/><path fill="#e5af37" d="M 205.980469 137.492188 L 205.59375 137.492188 L 205.324219 137.765625 L 205.324219 138.148438 L 205.597656 138.417969 L 205.980469 138.417969 L 206.253906 138.148438 L 206.253906 137.765625 L 205.980469 137.492188 " fill-opacity="1" fill-rule="nonzero"/><path fill="#e5af37" d="M 207.570312 137.121094 L 207.296875 137.394531 L 207.296875 137.777344 L 207.570312 138.046875 L 207.957031 138.046875 L 208.226562 137.777344 L 208.226562 137.394531 L 207.957031 137.121094 L 207.570312 137.121094 " fill-opacity="1" fill-rule="nonzero"/><path fill="#e5af37" d="M 209.546875 136.777344 L 209.277344 137.046875 L 209.277344 137.429688 L 209.546875 137.703125 L 209.933594 137.703125 L 210.203125 137.429688 L 210.203125 137.046875 L 209.933594 136.777344 L 209.546875 136.777344 " fill-opacity="1" fill-rule="nonzero"/><path fill="#e5af37" d="M 211.554688 136.636719 L 211.28125 136.90625 L 211.28125 137.289062 L 211.554688 137.5625 L 211.9375 137.5625 L 212.210938 137.289062 L 212.210938 136.90625 L 211.9375 136.636719 L 211.554688 136.636719 " fill-opacity="1" fill-rule="nonzero"/><path fill="#e5af37" d="M 213.945312 137.507812 L 214.21875 137.238281 L 214.21875 136.855469 L 213.945312 136.582031 L 213.5625 136.582031 L 213.289062 136.855469 L 213.289062 137.238281 L 213.5625 137.507812 L 213.945312 137.507812 " fill-opacity="1" fill-rule="nonzero"/><path fill="#e5af37" d="M 188.753906 157.046875 C 188.652344 157 187.664062 157.011719 187.554688 157.046875 C 187.441406 157.078125 186.746094 157.777344 186.707031 157.890625 C 186.667969 158.003906 186.660156 158.945312 186.707031 159.085938 C 186.75 159.222656 187.488281 159.863281 187.554688 159.929688 C 187.621094 159.992188 188.628906 159.972656 188.753906 159.929688 C 188.878906 159.882812 189.566406 159.183594 189.601562 159.085938 C 189.632812 158.984375 189.628906 158 189.601562 157.890625 C 189.574219 157.78125 188.851562 157.09375 188.753906 157.046875 " fill-opacity="1" fill-rule="nonzero"/><path fill="#e5af37" d="M 188.753906 151.960938 C 188.652344 151.914062 187.664062 151.929688 187.554688 151.960938 C 187.441406 151.996094 186.746094 152.691406 186.707031 152.808594 C 186.667969 152.921875 186.660156 153.859375 186.707031 154 C 186.75 154.140625 187.488281 154.78125 187.554688 154.84375 C 187.621094 154.910156 188.628906 154.890625 188.753906 154.84375 C 188.878906 154.800781 189.566406 154.101562 189.601562 154 C 189.632812 153.902344 189.628906 152.914062 189.601562 152.808594 C 189.574219 152.699219 188.851562 152.007812 188.753906 151.960938 " fill-opacity="1" fill-rule="nonzero"/><path fill="#e5af37" d="M 188.753906 146.878906 C 188.65625 146.832031 187.664062 146.847656 187.554688 146.878906 C 187.445312 146.914062 186.746094 147.609375 186.707031 147.722656 C 186.667969 147.839844 186.664062 148.777344 186.707031 148.917969 C 186.75 149.058594 187.488281 149.699219 187.554688 149.761719 C 187.621094 149.828125 188.628906 149.808594 188.753906 149.761719 C 188.878906 149.71875 189.566406 149.015625 189.601562 148.917969 C 189.636719 148.820312 189.628906 147.832031 189.601562 147.722656 C 189.574219 147.617188 188.851562 146.929688 188.753906 146.878906 " fill-opacity="1" fill-rule="nonzero"/><g fill="#e5af37" fill-opacity="1"><g transform="translate(33.919122, 231.622706)"><g><path d="M -6.15625 -49.0625 C -3.71875 -50.082031 -1.601562 -50.59375 0.1875 -50.59375 C 1.976562 -50.59375 3.554688 -50.421875 4.921875 -50.078125 C 6.296875 -49.742188 7.695312 -49.179688 9.125 -48.390625 C 10.550781 -47.597656 11.882812 -46.625 13.125 -45.46875 C 15.519531 -43.207031 17.550781 -40.644531 19.21875 -37.78125 L 32.015625 -13.765625 L 50.59375 -45.734375 L 51.171875 -45.734375 L 57.828125 -8.0625 C 58.859375 -2.257812 60.632812 2.347656 63.15625 5.765625 C 65.664062 9.222656 69.125 10.953125 73.53125 10.953125 C 73.820312 10.953125 74.097656 10.953125 74.359375 10.953125 L 74.359375 11.59375 C 72.003906 12.226562 69.695312 12.546875 67.4375 12.546875 C 62.832031 12.546875 58.628906 10.734375 54.828125 7.109375 C 51.148438 3.648438 48.648438 -1.40625 47.328125 -8.0625 L 44.1875 -26.703125 L 32.15625 -5.828125 C 30.53125 -3.140625 29.695312 -0.769531 29.65625 1.28125 L 29.078125 1.28125 L 13.125 -28.953125 L 9.984375 -3.328125 C 9.859375 -2.347656 10.285156 -1.554688 11.265625 -0.953125 C 11.648438 -0.703125 12.054688 -0.578125 12.484375 -0.578125 L 13.515625 -0.578125 L 13.515625 0 L 0.125 0 L 0.125 -0.640625 L 1.15625 -0.640625 C 2.257812 -0.640625 3.25 -0.96875 4.125 -1.625 C 5 -2.289062 5.546875 -3.203125 5.765625 -4.359375 L 10.125 -34.90625 C 8.195312 -38.320312 5.992188 -41.351562 3.515625 -44 C 0.742188 -46.988281 -2.15625 -48.484375 -5.1875 -48.484375 C -5.488281 -48.484375 -5.765625 -48.460938 -6.015625 -48.421875 Z M -6.15625 -49.0625 "/></g></g></g><g fill="#e5af37" fill-opacity="1"><g transform="translate(95.901418, 231.622706)"><g><path d="M 47.265625 -0.640625 L 47.84375 -0.640625 L 47.84375 0 L 27.40625 0 L 27.40625 -0.640625 L 27.984375 -0.640625 C 28.921875 -0.640625 29.613281 -0.925781 30.0625 -1.5 C 30.507812 -2.082031 30.734375 -2.628906 30.734375 -3.140625 C 30.734375 -3.648438 30.628906 -4.160156 30.421875 -4.671875 L 27.28125 -12.546875 L 12.296875 -12.546875 L 8.96875 -4.671875 C 8.75 -4.117188 8.640625 -3.597656 8.640625 -3.109375 C 8.640625 -2.617188 8.863281 -2.082031 9.3125 -1.5 C 9.757812 -0.925781 10.476562 -0.640625 11.46875 -0.640625 L 11.96875 -0.640625 L 11.96875 0 L -1.734375 0 L -1.734375 -0.640625 L -1.15625 -0.640625 C -0.175781 -0.640625 0.800781 -0.9375 1.78125 -1.53125 C 2.769531 -2.132812 3.582031 -3.035156 4.21875 -4.234375 L 19.015625 -37.71875 C 21.023438 -41.945312 22.09375 -44.742188 22.21875 -46.109375 L 22.796875 -46.109375 L 41.828125 -4.359375 C 42.460938 -3.117188 43.269531 -2.1875 44.25 -1.5625 C 45.238281 -0.945312 46.242188 -0.640625 47.265625 -0.640625 Z M 13.390625 -15.25 L 26.1875 -15.25 L 19.984375 -31 Z M 13.390625 -15.25 "/></g></g></g><g fill="#e5af37" fill-opacity="1"><g transform="translate(141.747831, 231.622706)"><g><path d="M 3.515625 -0.640625 C 4.628906 -0.640625 5.582031 -1.035156 6.375 -1.828125 C 7.164062 -2.617188 7.582031 -3.566406 7.625 -4.671875 L 7.625 -40.21875 C 7.582031 -41.757812 6.878906 -42.914062 5.515625 -43.6875 C 4.910156 -44.019531 4.242188 -44.1875 3.515625 -44.1875 L 2.6875 -44.1875 L 2.6875 -44.828125 L 22.15625 -44.828125 L 22.09375 -44.1875 L 21.328125 -44.1875 C 19.785156 -44.1875 18.613281 -43.523438 17.8125 -42.203125 C 17.425781 -41.609375 17.234375 -40.945312 17.234375 -40.21875 L 17.234375 -4.671875 C 17.234375 -3.566406 17.632812 -2.617188 18.4375 -1.828125 C 19.25 -1.035156 20.210938 -0.640625 21.328125 -0.640625 L 22.09375 -0.640625 L 22.15625 0 L 2.6875 0 L 2.6875 -0.640625 Z M 49.765625 0 L 44.515625 0 C 38.023438 0 33.4375 -1.769531 30.75 -5.3125 C 23.101562 -15.6875 19.28125 -20.960938 19.28125 -21.140625 L 34.453125 -41.25 C 34.796875 -41.675781 34.96875 -42.054688 34.96875 -42.390625 C 34.96875 -42.734375 34.90625 -43.035156 34.78125 -43.296875 C 34.4375 -43.929688 33.835938 -44.25 32.984375 -44.25 L 32.34375 -44.25 L 32.34375 -44.828125 L 47.015625 -44.828125 L 47.015625 -44.25 L 46.75 -44.25 C 43.894531 -44.25 41.566406 -43.226562 39.765625 -41.1875 L 27.28125 -26.390625 L 43.234375 -4.609375 C 45.191406 -2.046875 47.367188 -0.722656 49.765625 -0.640625 Z M 49.765625 0 "/></g></g></g><g fill="#e5af37" fill-opacity="1"><g transform="translate(190.155489, 231.622706)"><g><path d="M 3.515625 -0.640625 C 4.628906 -0.640625 5.582031 -1.035156 6.375 -1.828125 C 7.164062 -2.617188 7.582031 -3.566406 7.625 -4.671875 L 7.625 -40.34375 C 7.488281 -41.84375 6.785156 -42.957031 5.515625 -43.6875 C 4.867188 -44.019531 4.203125 -44.1875 3.515625 -44.1875 L 2.6875 -44.1875 L 2.6875 -44.828125 L 27.21875 -44.828125 C 28.539062 -44.828125 29.988281 -44.953125 31.5625 -45.203125 C 33.144531 -45.460938 34.257812 -45.722656 34.90625 -45.984375 L 34.90625 -34.78125 L 34.265625 -34.78125 L 34.265625 -35.546875 C 34.265625 -37.460938 33.695312 -39.007812 32.5625 -40.1875 C 31.4375 -41.363281 29.910156 -41.992188 27.984375 -42.078125 L 17.234375 -42.078125 L 17.234375 -23.4375 L 25.6875 -23.4375 C 27.257812 -23.476562 28.554688 -24.019531 29.578125 -25.0625 C 30.609375 -26.113281 31.125 -27.410156 31.125 -28.953125 L 31.125 -29.53125 L 31.765625 -29.53125 L 31.765625 -14.734375 L 31.125 -14.734375 L 31.125 -15.25 C 31.125 -17.382812 30.269531 -18.960938 28.5625 -19.984375 C 27.707031 -20.453125 26.769531 -20.707031 25.75 -20.75 L 17.234375 -20.75 L 17.234375 -2.75 L 25.625 -2.75 C 28.738281 -2.75 31.351562 -3.644531 33.46875 -5.4375 C 35.582031 -7.238281 37.148438 -9.78125 38.171875 -13.0625 L 38.8125 -13.0625 L 35.859375 0 L 2.6875 0 L 2.6875 -0.640625 Z M 3.515625 -0.640625 "/></g></g></g><g fill="#e5af37" fill-opacity="1"><g transform="translate(230.55923, 231.622706)"><g/></g></g><g fill="#e5af37" fill-opacity="1"><g transform="translate(246.567042, 231.622706)"><g><path d="M 50.59375 -44.1875 L 49.515625 -44.1875 C 48.609375 -44.1875 47.820312 -43.898438 47.15625 -43.328125 C 46.5 -42.753906 46.171875 -42.039062 46.171875 -41.1875 L 46.171875 -16.203125 C 46.171875 -10.953125 44.523438 -6.789062 41.234375 -3.71875 C 37.953125 -0.644531 33.453125 0.890625 27.734375 0.890625 C 20.984375 0.890625 15.816406 -0.613281 12.234375 -3.625 C 8.648438 -6.632812 6.859375 -10.804688 6.859375 -16.140625 L 6.859375 -40.984375 C 6.859375 -41.929688 6.523438 -42.703125 5.859375 -43.296875 C 5.203125 -43.890625 4.398438 -44.1875 3.453125 -44.1875 L 2.4375 -44.1875 L 2.4375 -44.828125 L 20.875 -44.828125 L 20.875 -44.1875 L 19.859375 -44.1875 C 18.921875 -44.1875 18.128906 -43.898438 17.484375 -43.328125 C 16.847656 -42.753906 16.503906 -42.019531 16.453125 -41.125 L 16.453125 -16.65625 C 16.453125 -12.125 17.5625 -8.535156 19.78125 -5.890625 C 22.007812 -3.242188 25.066406 -1.921875 28.953125 -1.921875 C 32.835938 -1.921875 35.910156 -3.171875 38.171875 -5.671875 C 40.429688 -8.171875 41.582031 -11.550781 41.625 -15.8125 L 41.625 -41.125 C 41.625 -42.019531 41.289062 -42.753906 40.625 -43.328125 C 39.96875 -43.898438 39.171875 -44.1875 38.234375 -44.1875 L 37.21875 -44.1875 L 37.21875 -44.828125 L 50.59375 -44.828125 Z M 50.59375 -44.1875 "/></g></g></g><g fill="#e5af37" fill-opacity="1"><g transform="translate(299.136733, 231.622706)"><g><path d="M 39 -26.453125 C 37.550781 -23.117188 34.863281 -20.8125 30.9375 -19.53125 C 29.78125 -19.144531 28.710938 -18.953125 27.734375 -18.953125 C 24.703125 -18.953125 21.988281 -19.742188 19.59375 -21.328125 L 19.59375 -21.96875 C 22.800781 -21.882812 25.382812 -22.929688 27.34375 -25.109375 C 29.09375 -26.984375 29.96875 -29.4375 29.96875 -32.46875 C 29.96875 -37.125 28.347656 -40.132812 25.109375 -41.5 C 24.078125 -41.925781 22.945312 -42.140625 21.71875 -42.140625 L 17.421875 -42.140625 L 17.421875 -4.671875 C 17.421875 -3.566406 17.828125 -2.617188 18.640625 -1.828125 C 19.453125 -1.035156 20.410156 -0.640625 21.515625 -0.640625 L 22.359375 -0.640625 L 22.359375 0 L 2.875 0 L 2.875 -0.640625 L 3.71875 -0.640625 C 4.820312 -0.640625 5.769531 -1.035156 6.5625 -1.828125 C 7.351562 -2.617188 7.769531 -3.566406 7.8125 -4.671875 L 7.8125 -40.484375 C 7.644531 -41.929688 6.921875 -43 5.640625 -43.6875 C 5.035156 -44.019531 4.394531 -44.1875 3.71875 -44.1875 L 2.875 -44.1875 L 2.875 -44.828125 L 24.28125 -44.828125 C 32 -44.828125 36.945312 -42.375 39.125 -37.46875 C 39.8125 -35.84375 40.15625 -34.035156 40.15625 -32.046875 C 40.15625 -30.066406 39.769531 -28.203125 39 -26.453125 Z M 39 -26.453125 "/></g></g></g><g fill="#e5af37" fill-opacity="1"><g transform="translate(157.151852, 268.572405)"><g><path d="M 2.34375 -9.296875 C 3.414062 -10.285156 4.859375 -10.78125 6.671875 -10.78125 C 8.492188 -10.78125 9.941406 -10.285156 11.015625 -9.296875 C 12.085938 -8.304688 12.625 -6.96875 12.625 -5.28125 C 12.625 -3.59375 12.085938 -2.253906 11.015625 -1.265625 C 9.941406 -0.273438 8.492188 0.21875 6.671875 0.21875 C 4.859375 0.21875 3.414062 -0.273438 2.34375 -1.265625 C 1.269531 -2.253906 0.734375 -3.59375 0.734375 -5.28125 C 0.734375 -6.96875 1.269531 -8.304688 2.34375 -9.296875 Z M 4.140625 -1.71875 C 4.765625 -0.851562 5.609375 -0.421875 6.671875 -0.421875 C 7.734375 -0.421875 8.578125 -0.851562 9.203125 -1.71875 C 9.828125 -2.59375 10.140625 -3.78125 10.140625 -5.28125 C 10.140625 -6.78125 9.828125 -7.960938 9.203125 -8.828125 C 8.578125 -9.703125 7.734375 -10.140625 6.671875 -10.140625 C 5.609375 -10.140625 4.765625 -9.703125 4.140625 -8.828125 C 3.523438 -7.960938 3.21875 -6.78125 3.21875 -5.28125 C 3.21875 -3.78125 3.523438 -2.59375 4.140625 -1.71875 Z M 4.140625 -1.71875 "/></g></g></g><g fill="#e5af37" fill-opacity="1"><g transform="translate(170.393901, 268.572405)"><g><path d="M 4.0625 -9.921875 L 4.0625 -5.53125 L 6.046875 -5.53125 C 6.421875 -5.539062 6.726562 -5.664062 6.96875 -5.90625 C 7.207031 -6.144531 7.328125 -6.453125 7.328125 -6.828125 L 7.328125 -6.953125 L 7.484375 -6.953125 L 7.484375 -3.46875 L 7.328125 -3.46875 L 7.328125 -3.59375 C 7.328125 -3.96875 7.207031 -4.273438 6.96875 -4.515625 C 6.738281 -4.753906 6.441406 -4.878906 6.078125 -4.890625 L 4.0625 -4.890625 L 4.0625 -1.109375 C 4.0625 -0.835938 4.15625 -0.609375 4.34375 -0.421875 C 4.539062 -0.242188 4.769531 -0.15625 5.03125 -0.15625 L 5.203125 -0.15625 L 5.21875 0 L 0.640625 0 L 0.640625 -0.15625 L 0.828125 -0.15625 C 1.085938 -0.15625 1.3125 -0.242188 1.5 -0.421875 C 1.6875 -0.609375 1.785156 -0.835938 1.796875 -1.109375 L 1.796875 -9.515625 C 1.796875 -9.859375 1.628906 -10.117188 1.296875 -10.296875 C 1.160156 -10.378906 1.003906 -10.421875 0.828125 -10.421875 L 0.640625 -10.421875 L 0.640625 -10.5625 L 6.421875 -10.5625 C 6.722656 -10.5625 7.0625 -10.59375 7.4375 -10.65625 C 7.8125 -10.71875 8.070312 -10.78125 8.21875 -10.84375 L 8.21875 -8.28125 L 8.078125 -8.28125 L 8.078125 -8.4375 C 8.078125 -8.882812 7.945312 -9.238281 7.6875 -9.5 C 7.4375 -9.769531 7.085938 -9.910156 6.640625 -9.921875 Z M 4.0625 -9.921875 "/></g></g></g><g fill="#e5af37" fill-opacity="1"><g transform="translate(179.367728, 268.572405)"><g><path d="M 4.0625 -9.921875 L 4.0625 -5.53125 L 6.046875 -5.53125 C 6.421875 -5.539062 6.726562 -5.664062 6.96875 -5.90625 C 7.207031 -6.144531 7.328125 -6.453125 7.328125 -6.828125 L 7.328125 -6.953125 L 7.484375 -6.953125 L 7.484375 -3.46875 L 7.328125 -3.46875 L 7.328125 -3.59375 C 7.328125 -3.96875 7.207031 -4.273438 6.96875 -4.515625 C 6.738281 -4.753906 6.441406 -4.878906 6.078125 -4.890625 L 4.0625 -4.890625 L 4.0625 -1.109375 C 4.0625 -0.835938 4.15625 -0.609375 4.34375 -0.421875 C 4.539062 -0.242188 4.769531 -0.15625 5.03125 -0.15625 L 5.203125 -0.15625 L 5.21875 0 L 0.640625 0 L 0.640625 -0.15625 L 0.828125 -0.15625 C 1.085938 -0.15625 1.3125 -0.242188 1.5 -0.421875 C 1.6875 -0.609375 1.785156 -0.835938 1.796875 -1.109375 L 1.796875 -9.515625 C 1.796875 -9.859375 1.628906 -10.117188 1.296875 -10.296875 C 1.160156 -10.378906 1.003906 -10.421875 0.828125 -10.421875 L 0.640625 -10.421875 L 0.640625 -10.5625 L 6.421875 -10.5625 C 6.722656 -10.5625 7.0625 -10.59375 7.4375 -10.65625 C 7.8125 -10.71875 8.070312 -10.78125 8.21875 -10.84375 L 8.21875 -8.28125 L 8.078125 -8.28125 L 8.078125 -8.4375 C 8.078125 -8.882812 7.945312 -9.238281 7.6875 -9.5 C 7.4375 -9.769531 7.085938 -9.910156 6.640625 -9.921875 Z M 4.0625 -9.921875 "/></g></g></g><g fill="#e5af37" fill-opacity="1"><g transform="translate(188.341555, 268.572405)"><g><path d="M 0.828125 -0.15625 C 1.085938 -0.15625 1.3125 -0.242188 1.5 -0.421875 C 1.6875 -0.609375 1.785156 -0.835938 1.796875 -1.109375 L 1.796875 -9.515625 C 1.773438 -9.773438 1.695312 -9.960938 1.5625 -10.078125 C 1.320312 -10.304688 1.078125 -10.421875 0.828125 -10.421875 L 0.640625 -10.421875 L 0.640625 -10.5625 L 6.421875 -10.5625 C 6.910156 -10.5625 7.316406 -10.597656 7.640625 -10.671875 C 7.960938 -10.753906 8.15625 -10.8125 8.21875 -10.84375 L 8.21875 -8.203125 L 8.078125 -8.21875 L 8.078125 -8.375 C 8.078125 -9 7.84375 -9.441406 7.375 -9.703125 C 7.15625 -9.835938 6.894531 -9.910156 6.59375 -9.921875 L 4.0625 -9.921875 L 4.0625 -5.53125 L 6.046875 -5.53125 C 6.421875 -5.539062 6.726562 -5.664062 6.96875 -5.90625 C 7.207031 -6.15625 7.328125 -6.460938 7.328125 -6.828125 L 7.328125 -6.953125 L 7.484375 -6.953125 L 7.484375 -3.46875 L 7.328125 -3.46875 L 7.328125 -3.59375 C 7.328125 -3.96875 7.207031 -4.273438 6.96875 -4.515625 C 6.738281 -4.753906 6.441406 -4.878906 6.078125 -4.890625 L 4.0625 -4.890625 L 4.0625 -0.65625 L 6.03125 -0.65625 C 6.769531 -0.65625 7.390625 -0.863281 7.890625 -1.28125 C 8.390625 -1.707031 8.757812 -2.304688 9 -3.078125 L 9.140625 -3.078125 L 8.453125 0 L 0.640625 0 L 0.640625 -0.15625 Z M 0.828125 -0.15625 "/></g></g></g><g fill="#e5af37" fill-opacity="1"><g transform="translate(197.858335, 268.572405)"><g><path d="M 4.796875 -9.90625 L 4.15625 -9.90625 C 4.132812 -9.90625 4.117188 -9.90625 4.109375 -9.90625 L 4.109375 -1.109375 C 4.117188 -0.835938 4.210938 -0.609375 4.390625 -0.421875 C 4.578125 -0.242188 4.804688 -0.15625 5.078125 -0.15625 L 5.265625 -0.15625 L 5.265625 0 L 0.671875 0 L 0.671875 -0.15625 L 0.875 -0.15625 C 1.238281 -0.15625 1.515625 -0.3125 1.703125 -0.625 C 1.785156 -0.757812 1.832031 -0.914062 1.84375 -1.09375 L 1.84375 -9.46875 C 1.832031 -9.726562 1.734375 -9.953125 1.546875 -10.140625 C 1.359375 -10.328125 1.132812 -10.421875 0.875 -10.421875 L 0.671875 -10.421875 L 0.671875 -10.5625 L 5.859375 -10.5625 C 6.835938 -10.5625 7.660156 -10.351562 8.328125 -9.9375 C 8.671875 -9.71875 8.941406 -9.421875 9.140625 -9.046875 C 9.347656 -8.671875 9.453125 -8.175781 9.453125 -7.5625 C 9.453125 -6.957031 9.238281 -6.375 8.8125 -5.8125 C 8.394531 -5.25 7.78125 -4.925781 6.96875 -4.84375 C 7.550781 -4.65625 8.066406 -4.210938 8.515625 -3.515625 C 9.597656 -1.773438 10.398438 -0.738281 10.921875 -0.40625 C 11.191406 -0.25 11.519531 -0.164062 11.90625 -0.15625 L 11.90625 0 L 10.4375 0 C 9.550781 0 8.816406 -0.113281 8.234375 -0.34375 C 7.660156 -0.570312 7.207031 -0.976562 6.875 -1.5625 C 6.6875 -1.894531 6.269531 -2.757812 5.625 -4.15625 C 5.34375 -4.769531 5.003906 -5.101562 4.609375 -5.15625 L 4.609375 -5.3125 L 5.078125 -5.3125 C 5.523438 -5.3125 5.921875 -5.445312 6.265625 -5.71875 C 6.617188 -5.988281 6.851562 -6.429688 6.96875 -7.046875 C 7.007812 -7.253906 7.03125 -7.421875 7.03125 -7.546875 C 7.03125 -8.367188 6.863281 -8.960938 6.53125 -9.328125 C 6.195312 -9.703125 5.769531 -9.894531 5.25 -9.90625 C 5.15625 -9.90625 5.003906 -9.90625 4.796875 -9.90625 Z M 4.796875 -9.90625 "/></g></g></g><g fill="#e5af37" fill-opacity="1"><g transform="translate(209.124631, 268.572405)"><g><path d="M 0.75 -1.40625 C 0.75 -2.125 0.90625 -2.742188 1.21875 -3.265625 L 1.359375 -3.265625 C 1.347656 -3.179688 1.34375 -3.097656 1.34375 -3.015625 C 1.34375 -2.328125 1.59375 -1.722656 2.09375 -1.203125 C 2.59375 -0.679688 3.273438 -0.421875 4.140625 -0.421875 C 4.804688 -0.421875 5.328125 -0.582031 5.703125 -0.90625 C 6.085938 -1.226562 6.28125 -1.632812 6.28125 -2.125 C 6.28125 -2.414062 6.1875 -2.675781 6 -2.90625 C 5.8125 -3.144531 5.503906 -3.40625 5.078125 -3.6875 L 2.4375 -5.421875 C 1.46875 -6.078125 0.984375 -6.878906 0.984375 -7.828125 C 0.984375 -7.929688 0.992188 -8.035156 1.015625 -8.140625 C 1.078125 -8.929688 1.382812 -9.566406 1.9375 -10.046875 C 2.5 -10.535156 3.25 -10.78125 4.1875 -10.78125 C 4.738281 -10.78125 5.421875 -10.726562 6.234375 -10.625 L 7.1875 -10.625 L 6.984375 -8.40625 L 6.84375 -8.40625 C 6.84375 -8.925781 6.644531 -9.34375 6.25 -9.65625 C 5.863281 -9.976562 5.347656 -10.140625 4.703125 -10.140625 C 3.921875 -10.140625 3.351562 -9.898438 3 -9.421875 C 2.820312 -9.191406 2.734375 -8.957031 2.734375 -8.71875 C 2.734375 -8.488281 2.78125 -8.296875 2.875 -8.140625 C 3.007812 -7.878906 3.3125 -7.597656 3.78125 -7.296875 L 6.671875 -5.421875 C 7.578125 -4.828125 8.03125 -4.050781 8.03125 -3.09375 C 8.03125 -2.03125 7.664062 -1.210938 6.9375 -0.640625 C 6.207031 -0.0664062 5.238281 0.21875 4.03125 0.21875 C 3.34375 0.21875 2.707031 0.132812 2.125 -0.03125 C 1.550781 -0.195312 1.128906 -0.421875 0.859375 -0.703125 C 0.785156 -0.898438 0.75 -1.132812 0.75 -1.40625 Z M 0.75 -1.40625 "/></g></g></g></svg>